<?xml version="1.0" encoding="utf-8"?>
<!-- Generator: Adobe Illustrator 19.0.0, SVG Export Plug-In . SVG Version: 6.00 Build 0)  -->
<svg version="1.1" xmlns="http://www.w3.org/2000/svg" xmlns:xlink="http://www.w3.org/1999/xlink" x="0px" y="0px"
	 viewBox="0 0 841.9 595.3" style="enable-background:new 0 0 841.9 595.3;" xml:space="preserve">
<style type="text/css">
	.st0{fill:#74C044;stroke:#6B7264;stroke-width:10;stroke-miterlimit:10;}
	.st1{fill:#74C044;}
	.st2{fill:#5A9140;}
	.st3{fill:#FFFFFF;}
	.st4{font-family:'MyriadPro-Regular';}
	.st5{font-size:41.1557px;}
</style>
<g id="Layer_2">
	<polygon id="XMLID_7_" class="st0" points="435,95.5 12.9,161 12.9,297.6 12.9,434.3 435,499.8 829,434.3 829,297.6 829,161 	"/>
	<g id="XMLID_5_">
		<polygon id="XMLID_6_" class="st1" points="435,95.5 12.9,161 12.9,297.6 12.9,434.3 435,499.8 829,434.3 829,297.6 829,161 		"/>
		<polygon id="XMLID_4_" class="st2" points="435,499.8 829,434.3 829,297.6 829,161 435,95.5 		"/>
	</g>
</g>
<g id="Layer_1">
	<g id="XMLID_3_">
		<g id="XMLID_1_">
			<path id="XMLID_8_" class="st3" d="M237.4,360.5c-9.3,3.3-27.7,8.8-49.4,8.8c-24.3,0-44.4-6.2-60.1-21.2
				c-13.8-13.4-22.4-34.8-22.4-59.9c0.2-48,33.2-83,87.1-83c18.6,0,33.2,4.1,40.1,7.4l-5,16.9c-8.6-3.8-19.3-6.9-35.6-6.9
				c-39.1,0-64.7,24.3-64.7,64.7c0,40.8,24.6,64.9,62,64.9c13.6,0,22.9-1.9,27.7-4.3v-48h-32.7v-16.7h53V360.5z"/>
			<path id="XMLID_10_" class="st3" d="M301.7,202.1c-17.4,23.4-30.1,54.4-30.1,97.6c0,42.5,13.1,73,30.1,96.9h-16.5
				c-15-19.8-31.3-50.4-31.3-96.9c0.2-47,16.2-77.6,31.3-97.6H301.7z"/>
			<path id="XMLID_12_" class="st3" d="M336.4,317.1l-16.7,50.6h-21.5l54.7-160.8h25.1l54.9,160.8h-22.2l-17.2-50.6H336.4z
				 M389.1,300.9l-15.8-46.3c-3.6-10.5-6-20-8.4-29.4h-0.5c-2.4,9.5-5,19.3-8.1,29.1l-15.8,46.5H389.1z"/>
			<path id="XMLID_15_" class="st3" d="M476.1,317.1l-16.7,50.6h-21.5l54.7-160.8h25.1l54.9,160.8h-22.2l-17.2-50.6H476.1z
				 M528.9,300.9l-15.8-46.3c-3.6-10.5-6-20-8.4-29.4h-0.5c-2.4,9.5-5,19.3-8.1,29.1l-15.8,46.5H528.9z"/>
			<path id="XMLID_18_" class="st3" d="M568.6,396.6c16.9-23.6,30.1-54.6,30.1-97.6c0-42.7-12.9-73.3-30.1-96.9h16.2
				c15.3,19.6,31.3,50.1,31.3,97.1c0,46.8-16,77.1-31.3,97.4H568.6z"/>
			<path id="XMLID_20_" class="st3" d="M637.4,208.7c10-1.7,23.1-3.1,39.9-3.1c20.5,0,35.6,4.8,45.1,13.4
				c8.8,7.6,14.1,19.3,14.1,33.6c0,14.6-4.3,26-12.4,34.4c-11,11.7-28.9,17.7-49.2,17.7c-6.2,0-11.9-0.2-16.7-1.4v64.4h-20.8V208.7z
				 M658.2,286.3c4.5,1.2,10.3,1.7,17.2,1.7c25.1,0,40.3-12.2,40.3-34.4c0-21.2-15-31.5-37.9-31.5c-9.1,0-16,0.7-19.6,1.7V286.3z"/>
		</g>
	</g>
	<text id="XMLID_2_" transform="matrix(1 0 0 1 110.6153 556.3315)" class="st1 st4 st5">Controle o poder da sua imaginação</text>
</g>
</svg>
